<svg width="24" height="24" viewBox="0 0 24 24" fill="none" xmlns="http://www.w3.org/2000/svg">
<path d="M12 0.375C5.37097 0.375 0 5.57812 0 12C0 18.4219 5.37097 23.625 12 23.625C18.629 23.625 24 18.4219 24 12C24 5.57812 18.629 0.375 12 0.375ZM12 21.375C6.6629 21.375 2.32258 17.1703 2.32258 12C2.32258 6.82969 6.6629 2.625 12 2.625C17.3371 2.625 21.6774 6.82969 21.6774 12C21.6774 17.1703 17.3371 21.375 12 21.375ZM8.12903 11.25C8.98548 11.25 9.67742 10.5797 9.67742 9.75C9.67742 8.92031 8.98548 8.25 8.12903 8.25C7.27258 8.25 6.58065 8.92031 6.58065 9.75C6.58065 10.5797 7.27258 11.25 8.12903 11.25ZM15.871 11.25C16.7274 11.25 17.4194 10.5797 17.4194 9.75C17.4194 8.92031 16.7274 8.25 15.871 8.25C15.0145 8.25 14.3226 8.92031 14.3226 9.75C14.3226 10.5797 15.0145 11.25 15.871 11.25ZM16.0645 14.6531C15.0581 15.825 13.5726 16.5 12 16.5C10.4274 16.5 8.94194 15.8297 7.93548 14.6531C7.52419 14.175 6.78871 14.1141 6.3 14.5078C5.80645 14.9062 5.74355 15.6141 6.15 16.0922C7.60161 17.7797 9.73548 18.7453 12 18.7453C14.2645 18.7453 16.3984 17.7797 17.85 16.0922C18.2613 15.6141 18.1935 14.9062 17.7 14.5078C17.2113 14.1141 16.4758 14.175 16.0645 14.6531Z" fill="#262626"/>
</svg>
