<svg width="24" height="22" viewBox="0 0 24 22" fill="none" xmlns="http://www.w3.org/2000/svg">
<path d="M12 0.5C5.37187 0.5 -1.78348e-06 4.86406 -1.78348e-06 10.25C-1.78348e-06 12.4812 0.932811 14.525 2.47969 16.1703C1.78125 18.0172 0.328123 19.5828 0.304686 19.6016C-0.00468928 19.9297 -0.0890643 20.4078 0.0890607 20.8203C0.267186 21.2328 0.674998 21.5 1.125 21.5C4.00781 21.5 6.28125 20.2953 7.64531 19.3297C9 19.7563 10.4625 20 12 20C18.6281 20 24 15.6359 24 10.25C24 4.86406 18.6281 0.5 12 0.5ZM12 17.75C10.7484 17.75 9.51094 17.5578 8.325 17.1828L7.26094 16.8453L6.34687 17.4922C5.67656 17.9656 4.75781 18.4953 3.65156 18.8516C3.99375 18.2844 4.32656 17.6469 4.58437 16.9672L5.08125 15.65L4.11562 14.6281C3.26719 13.7234 2.25 12.2281 2.25 10.25C2.25 6.11563 6.62344 2.75 12 2.75C17.3766 2.75 21.75 6.11563 21.75 10.25C21.75 14.3844 17.3766 17.75 12 17.75Z" fill="#262626"/>
</svg>
