<svg width="24" height="24" viewBox="0 0 24 24" fill="none" xmlns="http://www.w3.org/2000/svg">
<path d="M20.625 0.304687L1.12504 11.55C-0.487463 12.4828 -0.332775 14.8688 1.39222 15.5766L6.75004 17.7938V21.75C6.75004 23.925 9.52504 24.8203 10.8094 23.0906L12.8625 20.3203L18.1078 22.4859C18.3844 22.5984 18.675 22.6547 18.9657 22.6547C19.35 22.6547 19.7297 22.5563 20.0719 22.3641C20.6719 22.0266 21.0844 21.4266 21.1922 20.7469L23.9766 2.59687C24.2625 0.717187 22.2469 -0.628126 20.625 0.304687ZM9.00004 21.75V18.7219L10.7157 19.4297L9.00004 21.75ZM18.9657 20.4047L11.7563 17.4281L18.3282 7.94531C18.8297 7.21875 17.8828 6.375 17.2172 6.95156L7.30316 15.5906L2.25004 13.5L21.75 2.25L18.9657 20.4047Z" fill="#262626"/>
</svg>
